<mxfile host="app.diagrams.net" modified="2024-06-17T06:24:06.119Z" agent="Mozilla/5.0 (Windows NT 10.0; Win64; x64) AppleWebKit/537.36 (KHTML, like Gecko) Chrome/125.0.0.0 Safari/537.36" etag="yzh5Xz7GG4cAoZR-Uy24" version="24.5.4" type="device">
  <diagram name="Page-1" id="-zIk4zkahtgBftbjadhh">
    <mxGraphModel dx="2440" dy="1332" grid="1" gridSize="10" guides="1" tooltips="1" connect="1" arrows="1" fold="1" page="1" pageScale="1" pageWidth="827" pageHeight="1169" math="0" shadow="0">
      <root>
        <mxCell id="0" />
        <mxCell id="1" parent="0" />
        <mxCell id="dtdPiwh3d66kH-WRDqnk-26" style="edgeStyle=orthogonalEdgeStyle;rounded=0;orthogonalLoop=1;jettySize=auto;html=1;entryX=0.5;entryY=0;entryDx=0;entryDy=0;" edge="1" parent="1" source="hXdqMKXLJl7zaJcx0H7H-2" target="dtdPiwh3d66kH-WRDqnk-24">
          <mxGeometry relative="1" as="geometry" />
        </mxCell>
        <mxCell id="hXdqMKXLJl7zaJcx0H7H-2" value="Display prompt&amp;nbsp;" style="ellipse;whiteSpace=wrap;html=1;" parent="1" vertex="1">
          <mxGeometry x="280" y="60" width="180" height="60" as="geometry" />
        </mxCell>
        <mxCell id="hXdqMKXLJl7zaJcx0H7H-6" style="edgeStyle=orthogonalEdgeStyle;rounded=0;orthogonalLoop=1;jettySize=auto;html=1;" parent="1" source="hXdqMKXLJl7zaJcx0H7H-3" target="dtdPiwh3d66kH-WRDqnk-1" edge="1">
          <mxGeometry relative="1" as="geometry">
            <mxPoint x="370" y="380" as="targetPoint" />
          </mxGeometry>
        </mxCell>
        <mxCell id="hXdqMKXLJl7zaJcx0H7H-3" value="Input guess()&amp;nbsp; &amp;nbsp;&amp;nbsp;" style="shape=parallelogram;perimeter=parallelogramPerimeter;whiteSpace=wrap;html=1;fixedSize=1;" parent="1" vertex="1">
          <mxGeometry x="280" y="270" width="180" height="70" as="geometry" />
        </mxCell>
        <mxCell id="dtdPiwh3d66kH-WRDqnk-4" style="edgeStyle=orthogonalEdgeStyle;rounded=0;orthogonalLoop=1;jettySize=auto;html=1;entryX=0.5;entryY=0;entryDx=0;entryDy=0;" edge="1" parent="1" source="dtdPiwh3d66kH-WRDqnk-1" target="dtdPiwh3d66kH-WRDqnk-3">
          <mxGeometry relative="1" as="geometry" />
        </mxCell>
        <mxCell id="dtdPiwh3d66kH-WRDqnk-5" value="True" style="edgeLabel;html=1;align=center;verticalAlign=middle;resizable=0;points=[];" vertex="1" connectable="0" parent="dtdPiwh3d66kH-WRDqnk-4">
          <mxGeometry x="-0.0056" y="-1" relative="1" as="geometry">
            <mxPoint as="offset" />
          </mxGeometry>
        </mxCell>
        <mxCell id="dtdPiwh3d66kH-WRDqnk-9" style="edgeStyle=orthogonalEdgeStyle;rounded=0;orthogonalLoop=1;jettySize=auto;html=1;" edge="1" parent="1" source="dtdPiwh3d66kH-WRDqnk-1" target="dtdPiwh3d66kH-WRDqnk-8">
          <mxGeometry relative="1" as="geometry" />
        </mxCell>
        <mxCell id="dtdPiwh3d66kH-WRDqnk-10" value="False&lt;div&gt;&lt;br&gt;&lt;/div&gt;" style="edgeLabel;html=1;align=center;verticalAlign=middle;resizable=0;points=[];" vertex="1" connectable="0" parent="dtdPiwh3d66kH-WRDqnk-9">
          <mxGeometry x="0.5353" y="3" relative="1" as="geometry">
            <mxPoint as="offset" />
          </mxGeometry>
        </mxCell>
        <mxCell id="dtdPiwh3d66kH-WRDqnk-1" value="is guess[i] = target word [i]?" style="rhombus;whiteSpace=wrap;html=1;" vertex="1" parent="1">
          <mxGeometry x="260" y="390" width="220" height="80" as="geometry" />
        </mxCell>
        <mxCell id="dtdPiwh3d66kH-WRDqnk-7" style="edgeStyle=orthogonalEdgeStyle;rounded=0;orthogonalLoop=1;jettySize=auto;html=1;entryX=0;entryY=0.5;entryDx=0;entryDy=0;" edge="1" parent="1" source="dtdPiwh3d66kH-WRDqnk-3" target="dtdPiwh3d66kH-WRDqnk-6">
          <mxGeometry relative="1" as="geometry">
            <Array as="points">
              <mxPoint x="110" y="1085" />
            </Array>
          </mxGeometry>
        </mxCell>
        <mxCell id="dtdPiwh3d66kH-WRDqnk-3" value="result[i] = GREEN" style="shape=parallelogram;perimeter=parallelogramPerimeter;whiteSpace=wrap;html=1;fixedSize=1;" vertex="1" parent="1">
          <mxGeometry x="30" y="640" width="160" height="70" as="geometry" />
        </mxCell>
        <mxCell id="dtdPiwh3d66kH-WRDqnk-36" style="edgeStyle=orthogonalEdgeStyle;rounded=0;orthogonalLoop=1;jettySize=auto;html=1;entryX=0.5;entryY=0;entryDx=0;entryDy=0;" edge="1" parent="1" source="dtdPiwh3d66kH-WRDqnk-6" target="dtdPiwh3d66kH-WRDqnk-35">
          <mxGeometry relative="1" as="geometry" />
        </mxCell>
        <mxCell id="dtdPiwh3d66kH-WRDqnk-6" value="return join(result)&amp;nbsp;" style="shape=parallelogram;perimeter=parallelogramPerimeter;whiteSpace=wrap;html=1;fixedSize=1;" vertex="1" parent="1">
          <mxGeometry x="260" y="1050" width="190" height="70" as="geometry" />
        </mxCell>
        <mxCell id="dtdPiwh3d66kH-WRDqnk-14" style="edgeStyle=orthogonalEdgeStyle;rounded=0;orthogonalLoop=1;jettySize=auto;html=1;exitX=0;exitY=0.5;exitDx=0;exitDy=0;entryX=0.5;entryY=0;entryDx=0;entryDy=0;" edge="1" parent="1" source="dtdPiwh3d66kH-WRDqnk-8" target="dtdPiwh3d66kH-WRDqnk-13">
          <mxGeometry relative="1" as="geometry" />
        </mxCell>
        <mxCell id="dtdPiwh3d66kH-WRDqnk-15" value="True" style="edgeLabel;html=1;align=center;verticalAlign=middle;resizable=0;points=[];" vertex="1" connectable="0" parent="dtdPiwh3d66kH-WRDqnk-14">
          <mxGeometry x="0.1277" y="2" relative="1" as="geometry">
            <mxPoint as="offset" />
          </mxGeometry>
        </mxCell>
        <mxCell id="dtdPiwh3d66kH-WRDqnk-8" value="if guess[i] not equal to exact_matches[i]" style="shape=rhombus;whiteSpace=wrap;html=1;fixedSize=1;perimeter=rhombusPerimeter;" vertex="1" parent="1">
          <mxGeometry x="640" y="600" width="180" height="90" as="geometry" />
        </mxCell>
        <mxCell id="dtdPiwh3d66kH-WRDqnk-33" style="edgeStyle=orthogonalEdgeStyle;rounded=0;orthogonalLoop=1;jettySize=auto;html=1;entryX=0;entryY=0.5;entryDx=0;entryDy=0;" edge="1" parent="1" source="dtdPiwh3d66kH-WRDqnk-13" target="dtdPiwh3d66kH-WRDqnk-30">
          <mxGeometry relative="1" as="geometry">
            <Array as="points">
              <mxPoint x="410" y="935" />
            </Array>
          </mxGeometry>
        </mxCell>
        <mxCell id="dtdPiwh3d66kH-WRDqnk-13" value="target_char_count = +1" style="shape=parallelogram;perimeter=parallelogramPerimeter;whiteSpace=wrap;html=1;fixedSize=1;" vertex="1" parent="1">
          <mxGeometry x="334" y="760" width="160" height="70" as="geometry" />
        </mxCell>
        <mxCell id="dtdPiwh3d66kH-WRDqnk-17" value="" style="edgeStyle=orthogonalEdgeStyle;rounded=0;orthogonalLoop=1;jettySize=auto;html=1;" edge="1" parent="1" source="dtdPiwh3d66kH-WRDqnk-8" target="dtdPiwh3d66kH-WRDqnk-18">
          <mxGeometry relative="1" as="geometry">
            <mxPoint x="970" y="710" as="targetPoint" />
            <mxPoint x="820" y="645" as="sourcePoint" />
          </mxGeometry>
        </mxCell>
        <mxCell id="dtdPiwh3d66kH-WRDqnk-20" value="False" style="edgeLabel;html=1;align=center;verticalAlign=middle;resizable=0;points=[];" vertex="1" connectable="0" parent="dtdPiwh3d66kH-WRDqnk-17">
          <mxGeometry x="-0.2322" relative="1" as="geometry">
            <mxPoint as="offset" />
          </mxGeometry>
        </mxCell>
        <mxCell id="dtdPiwh3d66kH-WRDqnk-21" style="edgeStyle=orthogonalEdgeStyle;rounded=0;orthogonalLoop=1;jettySize=auto;html=1;" edge="1" parent="1" source="dtdPiwh3d66kH-WRDqnk-18" target="dtdPiwh3d66kH-WRDqnk-22">
          <mxGeometry relative="1" as="geometry">
            <mxPoint x="730" y="890" as="targetPoint" />
          </mxGeometry>
        </mxCell>
        <mxCell id="dtdPiwh3d66kH-WRDqnk-23" value="True" style="edgeLabel;html=1;align=center;verticalAlign=middle;resizable=0;points=[];" vertex="1" connectable="0" parent="dtdPiwh3d66kH-WRDqnk-21">
          <mxGeometry x="-0.2914" y="-3" relative="1" as="geometry">
            <mxPoint as="offset" />
          </mxGeometry>
        </mxCell>
        <mxCell id="dtdPiwh3d66kH-WRDqnk-28" style="edgeStyle=orthogonalEdgeStyle;rounded=0;orthogonalLoop=1;jettySize=auto;html=1;" edge="1" parent="1" source="dtdPiwh3d66kH-WRDqnk-18" target="dtdPiwh3d66kH-WRDqnk-30">
          <mxGeometry relative="1" as="geometry">
            <mxPoint x="1260" y="890" as="targetPoint" />
          </mxGeometry>
        </mxCell>
        <mxCell id="dtdPiwh3d66kH-WRDqnk-29" value="False" style="edgeLabel;html=1;align=center;verticalAlign=middle;resizable=0;points=[];" vertex="1" connectable="0" parent="dtdPiwh3d66kH-WRDqnk-28">
          <mxGeometry x="-0.3577" y="-3" relative="1" as="geometry">
            <mxPoint as="offset" />
          </mxGeometry>
        </mxCell>
        <mxCell id="dtdPiwh3d66kH-WRDqnk-18" value="if guess[i] and exact_matches[i] &amp;gt; 0" style="shape=parallelogram;perimeter=parallelogramPerimeter;whiteSpace=wrap;html=1;fixedSize=1;" vertex="1" parent="1">
          <mxGeometry x="810" y="760" width="230" height="90" as="geometry" />
        </mxCell>
        <mxCell id="dtdPiwh3d66kH-WRDqnk-32" style="edgeStyle=orthogonalEdgeStyle;rounded=0;orthogonalLoop=1;jettySize=auto;html=1;entryX=1;entryY=0.5;entryDx=0;entryDy=0;" edge="1" parent="1" source="dtdPiwh3d66kH-WRDqnk-22" target="dtdPiwh3d66kH-WRDqnk-6">
          <mxGeometry relative="1" as="geometry">
            <mxPoint x="480" y="1090" as="targetPoint" />
            <Array as="points">
              <mxPoint x="930" y="1085" />
            </Array>
          </mxGeometry>
        </mxCell>
        <mxCell id="dtdPiwh3d66kH-WRDqnk-22" value="result[i] = ORANGE&lt;div&gt;target_char_count = +1&lt;/div&gt;" style="shape=parallelogram;perimeter=parallelogramPerimeter;whiteSpace=wrap;html=1;fixedSize=1;" vertex="1" parent="1">
          <mxGeometry x="850" y="960" width="150" height="80" as="geometry" />
        </mxCell>
        <mxCell id="dtdPiwh3d66kH-WRDqnk-27" style="edgeStyle=orthogonalEdgeStyle;rounded=0;orthogonalLoop=1;jettySize=auto;html=1;entryX=0.5;entryY=0;entryDx=0;entryDy=0;" edge="1" parent="1" source="dtdPiwh3d66kH-WRDqnk-24" target="hXdqMKXLJl7zaJcx0H7H-3">
          <mxGeometry relative="1" as="geometry" />
        </mxCell>
        <mxCell id="dtdPiwh3d66kH-WRDqnk-24" value="result[i] = CLEAR" style="shape=label;whiteSpace=wrap;html=1;fixedSize=1;rounded=0;" vertex="1" parent="1">
          <mxGeometry x="280" y="160" width="180" height="70" as="geometry" />
        </mxCell>
        <mxCell id="dtdPiwh3d66kH-WRDqnk-34" style="edgeStyle=orthogonalEdgeStyle;rounded=0;orthogonalLoop=1;jettySize=auto;html=1;" edge="1" parent="1" source="dtdPiwh3d66kH-WRDqnk-30">
          <mxGeometry relative="1" as="geometry">
            <mxPoint x="350" y="1050" as="targetPoint" />
            <Array as="points">
              <mxPoint x="605" y="1020" />
              <mxPoint x="350" y="1020" />
              <mxPoint x="350" y="1050" />
            </Array>
          </mxGeometry>
        </mxCell>
        <mxCell id="dtdPiwh3d66kH-WRDqnk-30" value="result[i] = pass" style="shape=parallelogram;perimeter=parallelogramPerimeter;whiteSpace=wrap;html=1;fixedSize=1;size=10;" vertex="1" parent="1">
          <mxGeometry x="520" y="900" width="170" height="70" as="geometry" />
        </mxCell>
        <mxCell id="dtdPiwh3d66kH-WRDqnk-35" value="Print(result)" style="ellipse;whiteSpace=wrap;html=1;" vertex="1" parent="1">
          <mxGeometry x="280" y="1160" width="150" height="90" as="geometry" />
        </mxCell>
      </root>
    </mxGraphModel>
  </diagram>
</mxfile>
